REM DIRINDEX 1\2\6,1\2\7,1\2\8,1\2\9,1\3\10,1\3\11,1\4\12,1\4\13,1\4\14,1\5\15,1\5\16,1\5\17
REM DIRNAME cjc020,folder01,folder02,folder03,folder04,folder05,folder06,folder07,folder08,folder09,folder10,folder11,folder12,folder13,folder14,folder15,folder16
TITLE ""
FILE "1900_2_sec17_1618_1636.mp3" MP3
  TRACK 01 AUDIO
    TITLE "0:"
    INDEX 01 00:00:00
  TRACK 02 AUDIO
    TITLE "13:cjc020_5389"
    INDEX 01 00:00:17
  TRACK 03 AUDIO
    TITLE "0:"
    INDEX 01 00:01:42
  TRACK 04 AUDIO
    TITLE "14:cjc020_5390"
    INDEX 01 00:01:44
  TRACK 05 AUDIO
    TITLE "0:"
    INDEX 01 00:04:09
  TRACK 06 AUDIO
    TITLE "13:cjc020_5391"
    INDEX 01 00:04:62
  TRACK 07 AUDIO
    TITLE "0:"
    INDEX 01 00:05:69
  TRACK 08 AUDIO
    TITLE "14:cjc020_5392"
    INDEX 01 00:05:71
  TRACK 09 AUDIO
    TITLE "0:"
    INDEX 01 00:08:07
  TRACK 10 AUDIO
    TITLE "13:cjc020_5393"
    INDEX 01 00:08:62
  TRACK 11 AUDIO
    TITLE "0:"
    INDEX 01 00:09:69
  TRACK 12 AUDIO
    TITLE "14:cjc020_5394"
    INDEX 01 00:10:00
  TRACK 13 AUDIO
    TITLE "0:"
    INDEX 01 00:14:11
  TRACK 14 AUDIO
    TITLE "13:cjc020_5395"
    INDEX 01 00:14:64
  TRACK 15 AUDIO
    TITLE "0:"
    INDEX 01 00:15:72
  TRACK 16 AUDIO
    TITLE "14:cjc020_5396"
    INDEX 01 00:16:04
  TRACK 17 AUDIO
    TITLE "0:"
    INDEX 01 00:18:62
  TRACK 18 AUDIO
    TITLE "13:cjc020_5397"
    INDEX 01 00:19:42
  TRACK 19 AUDIO
    TITLE "0:"
    INDEX 01 00:20:47
  TRACK 20 AUDIO
    TITLE "14:cjc020_5398"
    INDEX 01 00:20:49
  TRACK 21 AUDIO
    TITLE "0:"
    INDEX 01 00:24:63
  TRACK 22 AUDIO
    TITLE "13:cjc020_5399"
    INDEX 01 00:25:41
  TRACK 23 AUDIO
    TITLE "0:"
    INDEX 01 00:26:54
  TRACK 24 AUDIO
    TITLE "14:cjc020_5400"
    INDEX 01 00:26:58
  TRACK 25 AUDIO
    TITLE "0:"
    INDEX 01 00:29:38
  TRACK 26 AUDIO
    TITLE "13:cjc020_5401"
    INDEX 01 00:30:20
  TRACK 27 AUDIO
    TITLE "0:"
    INDEX 01 00:31:18
  TRACK 28 AUDIO
    TITLE "14:cjc020_5402"
    INDEX 01 00:31:22
  TRACK 29 AUDIO
    TITLE "0:"
    INDEX 01 00:33:58
  TRACK 30 AUDIO
    TITLE "13:cjc020_5403"
    INDEX 01 00:34:42
  TRACK 31 AUDIO
    TITLE "0:"
    INDEX 01 00:35:72
  TRACK 32 AUDIO
    TITLE "14:cjc020_5404"
    INDEX 01 00:36:01
  TRACK 33 AUDIO
    TITLE "0:"
    INDEX 01 00:38:51
  TRACK 34 AUDIO
    TITLE "13:cjc020_5405"
    INDEX 01 00:39:31
  TRACK 35 AUDIO
    TITLE "0:"
    INDEX 01 00:40:44
  TRACK 36 AUDIO
    TITLE "14:cjc020_5406"
    INDEX 01 00:40:50
  TRACK 37 AUDIO
    TITLE "0:"
    INDEX 01 00:43:11
  TRACK 38 AUDIO
    TITLE "13:cjc020_5407"
    INDEX 01 00:43:66
  TRACK 39 AUDIO
    TITLE "0:"
    INDEX 01 00:44:69
  TRACK 40 AUDIO
    TITLE "14:cjc020_5408"
    INDEX 01 00:44:73
  TRACK 41 AUDIO
    TITLE "0:"
    INDEX 01 00:45:73
  TRACK 42 AUDIO
    TITLE "13:cjc020_5409"
    INDEX 01 00:46:54
  TRACK 43 AUDIO
    TITLE "0:"
    INDEX 01 00:47:62
  TRACK 44 AUDIO
    TITLE "14:cjc020_5410"
    INDEX 01 00:47:66
  TRACK 45 AUDIO
    TITLE "0:"
    INDEX 01 00:49:61
  TRACK 46 AUDIO
    TITLE "13:cjc020_5411"
    INDEX 01 00:50:42
  TRACK 47 AUDIO
    TITLE "0:"
    INDEX 01 00:51:42
  TRACK 48 AUDIO
    TITLE "14:cjc020_5412"
    INDEX 01 00:51:48
  TRACK 49 AUDIO
    TITLE "0:"
    INDEX 01 00:53:60
  TRACK 50 AUDIO
    TITLE "13:cjc020_5413"
    INDEX 01 00:54:42
  TRACK 51 AUDIO
    TITLE "0:"
    INDEX 01 00:55:51
  TRACK 52 AUDIO
    TITLE "14:cjc020_5414"
    INDEX 01 00:55:53
  TRACK 53 AUDIO
    TITLE "0:"
    INDEX 01 00:57:64
  TRACK 54 AUDIO
    TITLE "13:cjc020_5415"
    INDEX 01 00:58:42
  TRACK 55 AUDIO
    TITLE "0:"
    INDEX 01 00:59:63
  TRACK 56 AUDIO
    TITLE "14:cjc020_5416"
    INDEX 01 00:59:65
  TRACK 57 AUDIO
    TITLE "0:"
    INDEX 01 01:01:33
  TRACK 58 AUDIO
    TITLE "13:cjc020_5417"
    INDEX 01 01:02:12
  TRACK 59 AUDIO
    TITLE "0:"
    INDEX 01 01:03:22
  TRACK 60 AUDIO
    TITLE "14:cjc020_5418"
    INDEX 01 01:03:27
  TRACK 61 AUDIO
    TITLE "0:"
    INDEX 01 01:04:56
  TRACK 62 AUDIO
    TITLE "13:cjc020_5419"
    INDEX 01 01:05:36
  TRACK 63 AUDIO
    TITLE "0:"
    INDEX 01 01:06:65
  TRACK 64 AUDIO
    TITLE "14:cjc020_5420"
    INDEX 01 01:06:67
  TRACK 65 AUDIO
    TITLE "0:"
    INDEX 01 01:11:17
  TRACK 66 AUDIO
    TITLE "13:cjc020_5421"
    INDEX 01 01:11:70
  TRACK 67 AUDIO
    TITLE "0:"
    INDEX 01 01:12:71
  TRACK 68 AUDIO
    TITLE "14:cjc020_5422"
    INDEX 01 01:13:02
  TRACK 69 AUDIO
    TITLE "0:"
    INDEX 01 01:15:62
  TRACK 70 AUDIO
    TITLE "13:cjc020_5423"
    INDEX 01 01:16:38
  TRACK 71 AUDIO
    TITLE "0:"
    INDEX 01 01:17:67
  TRACK 72 AUDIO
    TITLE "14:cjc020_5424"
    INDEX 01 01:17:71
  TRACK 73 AUDIO
    TITLE "0:"
    INDEX 01 01:18:70
  TRACK 74 AUDIO
    TITLE "12:cjc020_5425"
    INDEX 01 01:20:40
  TRACK 75 AUDIO
    TITLE "0:"
    INDEX 01 01:21:63
  TRACK 76 AUDIO
    TITLE "13:cjc020_5426"
    INDEX 01 01:22:66
  TRACK 77 AUDIO
    TITLE "0:"
    INDEX 01 01:24:10
  TRACK 78 AUDIO
    TITLE "14:cjc020_5427"
    INDEX 01 01:24:16
  TRACK 79 AUDIO
    TITLE "0:"
    INDEX 01 01:26:68
